HIERARCHY
ROOT Hips
{
	OFFSET 0.000000 0.000000 0.000000
	CHANNELS 6 Xposition Yposition Zposition Xrotation Yrotation Zrotation
	JOINT LeftUpLeg_virtual
	{
		OFFSET 0.000000 0.000000 0.000000
		CHANNELS 3 Xrotation Yrotation Zrotation
		JOINT LeftUpLeg
		{
			OFFSET 13.026900 -6.336304 -1.092800
			CHANNELS 3 Xrotation Yrotation Zrotation
			JOINT LeftLeg
			{
				OFFSET 0.524474 -46.096886 9.782700
				CHANNELS 3 Xrotation Yrotation Zrotation
				JOINT LeftFoot
				{
					OFFSET -0.524474 -53.427422 -12.948200
					CHANNELS 3 Xrotation Yrotation Zrotation
					JOINT LeftToeBase
					{
						OFFSET 0.192200 -14.009700 16.364100
						CHANNELS 3 Xrotation Yrotation Zrotation
						JOINT LeftToe_End
						{
							OFFSET -1.784700 -0.561700 9.474800
							CHANNELS 3 Xrotation Yrotation Zrotation
							End Site
							{
								OFFSET 0 0 0
							}
						}
					}
				}
			}
		}
	}
	JOINT RightUpLeg_virtual
	{
		OFFSET 0.000000 0.000000 0.000000
		CHANNELS 3 Xrotation Yrotation Zrotation
		JOINT RightUpLeg
		{
			OFFSET -12.883000 -6.336304 -1.092800
			CHANNELS 3 Xrotation Yrotation Zrotation
			JOINT RightLeg
			{
				OFFSET -0.524587 -46.096825 9.782800
				CHANNELS 3 Xrotation Yrotation Zrotation
				JOINT RightFoot
				{
					OFFSET 0.524587 -53.427383 -12.948300
					CHANNELS 3 Xrotation Yrotation Zrotation
					JOINT RightToeBase
					{
						OFFSET -0.192200 -14.009700 16.364100
						CHANNELS 3 Xrotation Yrotation Zrotation
						JOINT RightToe_End
						{
							OFFSET 1.784700 -0.561700 9.474800
							CHANNELS 3 Xrotation Yrotation Zrotation
							End Site
							{
								OFFSET 0 0 0
							}
						}
					}
				}
			}
		}
	}
	JOINT Spine_virtual
	{
		OFFSET 0.000000 0.000000 0.000000
		CHANNELS 3 Xrotation Yrotation Zrotation
		JOINT Spine
		{
			OFFSET 0.072000 7.257294 -0.789700
			CHANNELS 3 Xrotation Yrotation Zrotation
			JOINT Spine1
			{
				OFFSET 0.000000 12.508769 -0.658067
				CHANNELS 3 Xrotation Yrotation Zrotation
				JOINT Spine1_split
				{
					OFFSET 0.000000 12.508769 -0.658067
					CHANNELS 3 Xrotation Yrotation Zrotation
					JOINT Spine2
					{
						OFFSET 0.000000 12.508769 -0.658067
						CHANNELS 3 Xrotation Yrotation Zrotation
						JOINT Neck_virtual
						{
							OFFSET 0.000000 0.000000 0.000000
							CHANNELS 3 Xrotation Yrotation Zrotation
							JOINT Neck
							{
								OFFSET 0.000000 14.033295 7.520400
								CHANNELS 3 Xrotation Yrotation Zrotation
								JOINT Head
								{
									OFFSET 0.000000 8.198502 5.703100
									CHANNELS 3 Xrotation Yrotation Zrotation
									JOINT HeadTop_End
									{
										OFFSET 0.000000 17.760803 13.332701
										CHANNELS 3 Xrotation Yrotation Zrotation
										End Site
										{
											OFFSET 0 0 0
										}
									}
								}
							}
						}
						JOINT LeftShoulder_virtual
						{
							OFFSET 0.000000 0.000000 0.000000
							CHANNELS 3 Xrotation Yrotation Zrotation
							JOINT LeftShoulder
							{
								OFFSET 6.292450 5.785301 -0.669000
								CHANNELS 3 Xrotation Yrotation Zrotation
								JOINT LeftShoulder_split
								{
									OFFSET 6.292450 5.785301 -0.669000
									CHANNELS 3 Xrotation Yrotation Zrotation
									JOINT LeftArm
									{
										OFFSET 13.907140 -6.093903 1.965100
										CHANNELS 3 Xrotation Yrotation Zrotation
										JOINT LeftForeArm
										{
											OFFSET 34.140198 0.000000 0.000000
											CHANNELS 3 Xrotation Yrotation Zrotation
											JOINT LeftHand
											{
												OFFSET 40.960209 0.000000 0.000000
												CHANNELS 3 Xrotation Yrotation Zrotation
												End Site
												{
													OFFSET 0 0 0
												}
											}
										}
									}
								}
							}
						}
						JOINT RightShoulder_virtual
						{
							OFFSET 0.000000 0.000000 0.000000
							CHANNELS 3 Xrotation Yrotation Zrotation
							JOINT RightShoulder
							{
								OFFSET -6.292450 5.785301 -0.669000
								CHANNELS 3 Xrotation Yrotation Zrotation
								JOINT RightShoulder_split
								{
									OFFSET -6.292450 5.785301 -0.669000
									CHANNELS 3 Xrotation Yrotation Zrotation
									JOINT RightArm
									{
										OFFSET -13.907140 -6.093903 1.965100
										CHANNELS 3 Xrotation Yrotation Zrotation
										JOINT RightForeArm
										{
											OFFSET -34.140198 0.000000 0.000000
											CHANNELS 3 Xrotation Yrotation Zrotation
											JOINT RightHand
											{
												OFFSET -40.960209 0.000000 0.000000
												CHANNELS 3 Xrotation Yrotation Zrotation
												End Site
												{
													OFFSET 0 0 0
												}
											}
										}
									}
								}
							}
						}
					}
				}
			}
		}
	}
}
MOTION
Frames: 8
Frame Time: 0.03333333
13.724098 173.758270 -18.232685 0.000000 0.000000 0.000000 -90.658030 -6.033952 -1.223085 6.252209 31.961208 7.873240 -0.769928 -17.717762 -7.896862 16.627856 32.789081 -12.259571 7.895512 -0.489224 4.503589 0.000000 0.000000 0.000000 -88.701235 -2.895546 1.325628 1.926513 -11.907539 -7.913107 -0.374827 10.254705 -9.615328 20.858771 -28.819543 21.838215 3.065342 -1.078249 -21.689489 0.000000 0.000000 0.000000 -92.667581 2.800578 5.538121 0.509872 -2.242500 -0.334805 5.352618 -5.546313 2.327339 0.155659 0.769841 -0.159929 0.000000 0.000000 0.000000 3.955529 -2.860974 1.093072 -25.806012 -0.790028 -3.365724 1.301137 -59.794488 21.136080 0.000000 0.000000 0.000000 3.335483 -4.574339 0.192210 -0.876804 -0.406495 -8.022528 3.417935 5.678050 -5.012434 43.997319 -23.500961 -43.804209 17.003616 -70.950393 12.187277 0.000000 0.000000 0.000000 6.332808 -3.137543 1.541268 -3.809834 -2.084576 15.777691 7.826693 5.069855 0.463909 43.704629 37.305865 34.219743 -75.460080 88.753063 66.435467 0.000000 0.000000 0.000000 
13.718974 173.782074 -18.166172 0.000000 0.000000 0.000000 -90.661472 -5.910552 -1.015903 6.308562 31.759908 7.836419 -0.827210 -17.707831 -7.906670 16.606703 32.942938 -12.121515 7.984323 -0.476020 4.446338 0.000000 0.000000 0.000000 -88.758192 -2.971942 1.361984 1.773989 -11.883057 -7.907372 -0.076491 10.423670 -9.667297 20.712675 -28.769819 21.743299 3.229705 -1.100601 -21.712989 0.000000 0.000000 0.000000 -92.783564 2.555465 5.569458 0.439225 -2.344916 -0.342752 5.356828 -5.384784 2.426199 0.063363 0.771873 -0.174172 0.000000 0.000000 0.000000 4.020261 -2.692488 1.074966 -25.929551 -0.919899 -3.303488 1.232503 -60.144761 20.908061 0.000000 0.000000 0.000000 3.564518 -4.424419 0.333205 -0.971613 -0.802405 -8.011521 3.691926 6.050283 -4.952163 43.739825 -23.279892 -43.815052 17.076627 -70.190910 12.129481 0.000000 0.000000 0.000000 6.529427 -2.962581 1.525493 -3.831799 -2.150806 15.329368 8.312295 5.768180 0.007757 41.811457 38.237813 33.973392 -112.666299 89.041618 103.751304 0.000000 0.000000 0.000000 
13.698447 173.833405 -18.051884 0.000000 0.000000 0.000000 -90.592036 -5.888075 -0.802043 6.342459 31.543016 7.796952 -0.947104 -17.624622 -7.946221 16.618969 33.178487 -12.068508 8.037875 -0.461598 4.365961 0.000000 0.000000 0.000000 -88.655029 -3.045935 1.476961 1.430968 -11.794728 -7.996629 0.315091 10.725676 -9.747411 20.688506 -28.552411 21.705072 3.225871 -1.120601 -21.835550 0.000000 0.000000 0.000000 -92.702988 2.378218 5.715357 0.401481 -2.499041 -0.512251 5.387823 -5.065919 2.480463 0.013302 0.770581 -0.175282 0.000000 0.000000 0.000000 4.245020 -2.366575 1.098400 -25.757820 -0.924726 -3.443104 0.065616 -60.600956 20.238658 0.000000 0.000000 0.000000 3.794647 -4.111395 0.474425 -1.015638 -1.288187 -7.909316 3.644996 6.101117 -5.207551 43.140646 -22.607154 -43.820650 16.535678 -70.198089 11.783400 0.000000 0.000000 0.000000 6.727546 -2.706897 1.457578 -3.863507 -2.323022 14.715313 9.001907 5.890371 -0.013898 37.790873 39.698094 34.714464 -174.648907 88.797152 165.863467 0.000000 0.000000 0.000000 
13.673704 173.908325 -17.960316 0.000000 0.000000 0.000000 -90.477146 -6.048329 -0.675003 6.328916 31.319132 7.759450 -1.063737 -17.545229 -8.001771 16.831104 33.377977 -12.213988 8.001229 -0.447767 4.288810 0.000000 0.000000 0.000000 -88.444379 -3.140937 1.654927 0.951700 -11.763736 -8.151416 0.771422 10.990468 -9.846869 20.751522 -28.257104 21.639655 3.042267 -1.139396 -22.032438 0.000000 0.000000 0.000000 -92.400261 2.295116 5.949806 0.510595 -2.664235 -0.845332 5.508706 -4.593477 2.486584 0.020676 0.713375 -0.182873 0.000000 0.000000 0.000000 4.639804 -1.888030 1.152891 -25.299702 -0.928285 -3.608685 -2.005424 -61.164344 19.293661 0.000000 0.000000 0.000000 4.041195 -3.618784 0.596107 -0.985435 -1.786394 -7.695819 3.433593 5.724852 -5.581320 42.195611 -21.534755 -43.697088 15.273428 -70.865794 11.022451 0.000000 0.000000 0.000000 6.945672 -2.338370 1.367033 -3.921224 -2.480915 14.104503 9.784507 5.412279 0.348769 31.705298 41.316156 36.920844 154.643556 87.540506 -163.266315 0.000000 0.000000 0.000000 
13.648499 174.018234 -17.857288 0.000000 0.000000 0.000000 -90.310032 -6.354772 -0.608401 6.279098 31.127655 7.715537 -1.153713 -17.477884 -8.052741 17.232393 33.492147 -12.491478 7.912631 -0.437826 4.237857 0.000000 0.000000 0.000000 -88.204537 -3.346021 1.797842 0.388354 -11.906459 -8.320525 1.105889 11.034433 -9.940481 20.810837 -28.024174 21.438301 2.933455 -1.198762 -22.269946 0.000000 0.000000 0.000000 -91.959112 2.250838 6.176212 0.858590 -2.765398 -1.316311 5.795464 -3.953470 2.465640 0.051439 0.617734 -0.187808 0.000000 0.000000 0.000000 5.171777 -1.246685 1.229046 -24.638787 -1.112977 -3.601885 -4.511302 -61.879929 18.329639 0.000000 0.000000 0.000000 4.347248 -2.939981 0.680633 -0.864986 -2.196763 -7.373310 3.212415 4.714394 -5.855720 41.000212 -20.285047 -43.292365 13.219210 -71.834076 9.687040 0.000000 0.000000 0.000000 7.233049 -1.813371 1.283030 -3.985552 -2.503698 13.678429 10.295918 4.735029 0.742141 23.788456 42.464871 40.795579 145.329651 85.689429 -153.761902 0.000000 0.000000 0.000000 
13.640852 174.175156 -17.763828 0.000000 0.000000 0.000000 -90.056263 -6.725548 -0.576760 6.214295 30.975427 7.671055 -1.232076 -17.389797 -8.065982 17.662021 33.519795 -12.755358 7.859587 -0.426520 4.210737 0.000000 0.000000 0.000000 -87.931671 -3.662317 1.864941 -0.216768 -12.224766 -8.473126 1.247153 10.861252 -10.005079 20.685817 -27.891383 21.046183 3.103928 -1.327761 -22.515133 0.000000 0.000000 0.000000 -91.454116 2.191374 6.327543 1.514290 -2.744215 -1.849606 6.297604 -3.134337 2.428411 0.108622 0.537843 -0.199591 0.000000 0.000000 0.000000 5.816161 -0.451902 1.299486 -23.805999 -1.654569 -3.303415 -6.834097 -62.916834 17.600581 0.000000 0.000000 0.000000 4.769552 -2.094766 0.716514 -0.635800 -2.409440 -6.960051 3.116439 3.319832 -5.782150 39.564779 -19.426415 -42.436614 10.312028 -72.766827 7.628489 0.000000 0.000000 0.000000 7.648115 -1.093829 1.206055 -4.055428 -2.209241 13.488457 10.561430 4.286357 1.087474 14.775974 42.592233 46.007690 143.351792 83.484528 -151.596322 0.000000 0.000000 0.000000 
13.644820 174.367035 -17.747517 0.000000 0.000000 0.000000 -89.738775 -7.041048 -0.552658 6.148953 30.821393 7.635093 -1.352430 -17.327290 -8.033104 17.963509 33.437553 -12.930448 7.871077 -0.412938 4.210475 0.000000 0.000000 0.000000 -87.609955 -3.971928 1.914047 -0.766586 -12.602750 -8.600559 1.306899 10.608333 -10.026565 20.334590 -27.800350 20.444856 3.623911 -1.510730 -22.742547 0.000000 0.000000 0.000000 -90.944030 2.100599 6.387788 2.442723 -2.575077 -2.378637 7.012691 -2.190449 2.380530 0.132341 0.487028 -0.192125 0.000000 0.000000 0.000000 6.555209 0.454001 1.322420 -22.890074 -2.518189 -2.735705 -8.316636 -64.329256 17.444626 0.000000 0.000000 0.000000 5.358745 -1.130355 0.692118 -0.296876 -2.262327 -6.468158 3.310249 1.771487 -5.584299 37.788749 -19.545153 -40.986674 6.752946 -73.349115 4.952309 0.000000 0.000000 0.000000 8.242019 -0.216803 1.097480 -4.129349 -1.538550 13.475025 11.004935 4.293456 1.427050 5.362360 41.315510 51.848922 145.662349 80.941799 -153.701004 0.000000 0.000000 0.000000 
13.667550 174.558228 -17.829006 0.000000 0.000000 0.000000 -89.360260 -7.230323 -0.535471 6.075467 30.639928 7.622630 -1.558825 -17.305661 -7.963672 17.986960 33.260566 -12.927760 7.977605 -0.402445 4.222122 0.000000 0.000000 0.000000 -87.276628 -4.177456 1.942490 -1.189601 -12.890568 -8.679360 1.349847 10.400327 -9.987684 19.920945 -27.645780 19.782656 4.321144 -1.693246 -22.940900 0.000000 0.000000 0.000000 -90.499016 1.967162 6.296860 3.527389 -2.246170 -2.834478 7.926865 -1.197529 2.307580 0.113201 0.517872 -0.164093 0.000000 0.000000 0.000000 7.384663 1.403062 1.272090 -21.941107 -3.636303 -2.041431 -8.667683 -65.787399 17.886421 0.000000 0.000000 0.000000 6.156062 -0.140803 0.593496 0.127105 -1.627148 -5.921632 3.727414 0.284524 -5.252361 35.687574 -21.026415 -38.839560 2.791243 -73.173797 1.864250 0.000000 0.000000 0.000000 9.027120 0.730215 0.929810 -4.156504 -0.463374 13.540470 11.395598 4.550021 2.023974 -3.100536 38.724891 57.208985 150.406626 78.112420 -158.228067 0.000000 0.000000 0.000000 
